<svg xmlns="http://www.w3.org/2000/svg" viewBox="0 0 1024 1024" width="1024" height="1024" role="img" aria-label="SciToolbox app icon">
  <defs>
    <linearGradient id="bg" x1="0" y1="0" x2="1" y2="1">
      <stop offset="0" stop-color="#20A8E8"/>
      <stop offset="1" stop-color="#0E5FA8"/>
    </linearGradient>
    <linearGradient id="glow" x1="0" y1="0" x2="1" y2="1">
      <stop offset="0" stop-color="#FFFFFF" stop-opacity="0.14"/>
      <stop offset="0.45" stop-color="#FFFFFF" stop-opacity="0"/>
    </linearGradient>
  </defs>

  <!-- 全出血不透明背景（App 图标不允许透明区域） -->
  <rect x="0" y="0" width="1024" height="1024" fill="url(#bg)"/>
  <rect x="0" y="0" width="1024" height="1024" fill="url(#glow)"/>

  <g stroke="rgba(255,255,255,0.40)" stroke-width="16" stroke-linecap="round">
    <line x1="512.0" y1="842.0" x2="226.2" y2="677.0"/>
    <line x1="226.2" y1="677.0" x2="226.2" y2="347.0"/>
    <line x1="226.2" y1="347.0" x2="512.0" y2="182.0"/>
    <line x1="512.0" y1="182.0" x2="797.8" y2="347.0"/>
    <line x1="797.8" y1="347.0" x2="797.8" y2="677.0"/>
    <line x1="797.8" y1="677.0" x2="512.0" y2="842.0"/>
  </g>
  <g><circle cx="512.0" cy="842.0" r="35" fill="#8F5BD6"/><circle cx="512.0" cy="842.0" r="35" fill="none" stroke="rgba(255,255,255,0.70)" stroke-width="12"/></g>
    <g><circle cx="226.2" cy="677.0" r="35" fill="#26A16B"/><circle cx="226.2" cy="677.0" r="35" fill="none" stroke="rgba(255,255,255,0.70)" stroke-width="12"/></g>
    <g><circle cx="226.2" cy="347.0" r="35" fill="#46B8F2"/><circle cx="226.2" cy="347.0" r="35" fill="none" stroke="rgba(255,255,255,0.70)" stroke-width="12"/></g>
    <g><circle cx="512.0" cy="182.0" r="41" fill="#FFFFFF"/><circle cx="512.0" cy="182.0" r="41" fill="none" stroke="rgba(255,255,255,0.70)" stroke-width="12"/></g>
    <g><circle cx="797.8" cy="347.0" r="35" fill="#E08E2E"/><circle cx="797.8" cy="347.0" r="35" fill="none" stroke="rgba(255,255,255,0.70)" stroke-width="12"/></g>
    <g><circle cx="797.8" cy="677.0" r="35" fill="#2BB6B6"/><circle cx="797.8" cy="677.0" r="35" fill="none" stroke="rgba(255,255,255,0.70)" stroke-width="12"/></g>

  <g stroke-linecap="round" stroke-linejoin="round" fill="none">
    <path d="M 512.0,318.0 L 507.8,319.1 L 503.6,320.1 L 499.5,321.2 L 495.3,322.2 L 491.2,323.3 L 487.1,324.4 L 483.0,325.4 L 478.9,326.5 L 474.9,327.6 L 471.0,328.6 L 467.0,329.7 L 463.2,330.7 L 459.4,331.8 L 455.7,332.9 L 452.0,333.9 L 448.4,335.0 L 444.9,336.0 L 441.5,337.1 L 438.1,338.2 L 434.9,339.2 L 431.7,340.3 L 428.6,341.3 L 425.7,342.4 L 422.8,343.5 L 420.1,344.5 L 417.4,345.6 L 414.9,346.6 L 412.5,347.7 L 410.2,348.8 L 408.1,349.8 L 406.0,350.9 L 404.1,352.0 L 402.4,353.0 L 400.7,354.1 L 399.2,355.1 L 397.9,356.2 L 396.6,357.3 L 395.6,358.3 L 394.6,359.4 L 393.8,360.4 L 393.2,361.5 L 392.7,362.6 L 392.3,363.6 L 392.1,364.7 L 392.0,365.8 L 392.1,366.8 L 392.3,367.9 L 392.7,368.9 L 393.2,370.0 L 393.8,371.1 L 394.6,372.1 L 395.6,373.2 L 396.6,374.2 L 397.9,375.3 L 399.2,376.4 L 400.7,377.4 L 402.4,378.5 L 404.1,379.5 L 406.0,380.6 L 408.1,381.7 L 410.2,382.7 L 412.5,383.8 L 414.9,384.9 L 417.4,385.9 L 420.1,387.0 L 422.8,388.0 L 425.7,389.1 L 428.6,390.2 L 431.7,391.2 L 434.9,392.3 L 438.1,393.3 L 441.5,394.4 L 444.9,395.5 L 448.4,396.5 L 452.0,397.6 L 455.7,398.6 L 459.4,399.7 L 463.2,400.8 L 467.0,401.8 L 471.0,402.9 L 474.9,403.9 L 478.9,405.0 L 483.0,406.1 L 487.1,407.1 L 491.2,408.2 L 495.3,409.3 L 499.5,410.3 L 503.6,411.4 L 507.8,412.4 L 512.0,413.5 L 516.2,414.6 L 520.4,415.6 L 524.5,416.7 L 528.7,417.7 L 532.8,418.8 L 536.9,419.9 L 541.0,420.9 L 545.1,422.0 L 549.1,423.1 L 553.0,424.1 L 557.0,425.2 L 560.8,426.2 L 564.6,427.3 L 568.3,428.4 L 572.0,429.4 L 575.6,430.5 L 579.1,431.5 L 582.5,432.6 L 585.9,433.7 L 589.1,434.7 L 592.3,435.8 L 595.4,436.8 L 598.3,437.9 L 601.2,439.0 L 603.9,440.0 L 606.6,441.1 L 609.1,442.1 L 611.5,443.2 L 613.8,444.3 L 615.9,445.3 L 618.0,446.4 L 619.9,447.5 L 621.6,448.5 L 623.3,449.6 L 624.8,450.6 L 626.1,451.7 L 627.4,452.8 L 628.4,453.8 L 629.4,454.9 L 630.2,455.9 L 630.8,457.0 L 631.3,458.1 L 631.7,459.1 L 631.9,460.2 L 632.0,461.2 L 631.9,462.3 L 631.7,463.4 L 631.3,464.4 L 630.8,465.5 L 630.2,466.6 L 629.4,467.6 L 628.4,468.7 L 627.4,469.7 L 626.1,470.8 L 624.8,471.9 L 623.3,472.9 L 621.6,474.0 L 619.9,475.0 L 618.0,476.1 L 615.9,477.2 L 613.8,478.2 L 611.5,479.3 L 609.1,480.4 L 606.6,481.4 L 603.9,482.5 L 601.2,483.5 L 598.3,484.6 L 595.4,485.7 L 592.3,486.7 L 589.1,487.8 L 585.9,488.8 L 582.5,489.9 L 579.1,491.0 L 575.6,492.0 L 572.0,493.1 L 568.3,494.1 L 564.6,495.2 L 560.8,496.3 L 557.0,497.3 L 553.0,498.4 L 549.1,499.4 L 545.1,500.5 L 541.0,501.6 L 536.9,502.6 L 532.8,503.7 L 528.7,504.8 L 524.5,505.8 L 520.4,506.9 L 516.2,507.9 L 512.0,509.0 L 507.8,510.1 L 503.6,511.1 L 499.5,512.2 L 495.3,513.2 L 491.2,514.3 L 487.1,515.4 L 483.0,516.4 L 478.9,517.5 L 474.9,518.5 L 471.0,519.6 L 467.0,520.7 L 463.2,521.7 L 459.4,522.8 L 455.7,523.9 L 452.0,524.9 L 448.4,526.0 L 444.9,527.0 L 441.5,528.1 L 438.1,529.2 L 434.9,530.2 L 431.7,531.3 L 428.6,532.3 L 425.7,533.4 L 422.8,534.5 L 420.1,535.5 L 417.4,536.6 L 414.9,537.6 L 412.5,538.7 L 410.2,539.8 L 408.1,540.8 L 406.0,541.9 L 404.1,543.0 L 402.4,544.0 L 400.7,545.1 L 399.2,546.1 L 397.9,547.2 L 396.6,548.3 L 395.6,549.3 L 394.6,550.4 L 393.8,551.4 L 393.2,552.5 L 392.7,553.6 L 392.3,554.6 L 392.1,555.7 L 392.0,556.8 L 392.1,557.8 L 392.3,558.9 L 392.7,559.9 L 393.2,561.0 L 393.8,562.1 L 394.6,563.1 L 395.6,564.2 L 396.6,565.2 L 397.9,566.3 L 399.2,567.4 L 400.7,568.4 L 402.4,569.5 L 404.1,570.5 L 406.0,571.6 L 408.1,572.7 L 410.2,573.7 L 412.5,574.8 L 414.9,575.8 L 417.4,576.9 L 420.1,578.0 L 422.8,579.0 L 425.7,580.1 L 428.6,581.2 L 431.7,582.2 L 434.9,583.3 L 438.1,584.3 L 441.5,585.4 L 444.9,586.5 L 448.4,587.5 L 452.0,588.6 L 455.7,589.6 L 459.4,590.7 L 463.2,591.8 L 467.0,592.8 L 471.0,593.9 L 474.9,595.0 L 478.9,596.0 L 483.0,597.1 L 487.1,598.1 L 491.2,599.2 L 495.3,600.3 L 499.5,601.3 L 503.6,602.4 L 507.8,603.4 L 512.0,604.5 L 516.2,605.6 L 520.4,606.6 L 524.5,607.7 L 528.7,608.7 L 532.8,609.8 L 536.9,610.9 L 541.0,611.9 L 545.1,613.0 L 549.1,614.0 L 553.0,615.1 L 557.0,616.2 L 560.8,617.2 L 564.6,618.3 L 568.3,619.4 L 572.0,620.4 L 575.6,621.5 L 579.1,622.5 L 582.5,623.6 L 585.9,624.7 L 589.1,625.7 L 592.3,626.8 L 595.4,627.8 L 598.3,628.9 L 601.2,630.0 L 603.9,631.0 L 606.6,632.1 L 609.1,633.1 L 611.5,634.2 L 613.8,635.3 L 615.9,636.3 L 618.0,637.4 L 619.9,638.5 L 621.6,639.5 L 623.3,640.6 L 624.8,641.6 L 626.1,642.7 L 627.4,643.8 L 628.4,644.8 L 629.4,645.9 L 630.2,646.9 L 630.8,648.0 L 631.3,649.1 L 631.7,650.1 L 631.9,651.2 L 632.0,652.2 L 631.9,653.3 L 631.7,654.4 L 631.3,655.4 L 630.8,656.5 L 630.2,657.6 L 629.4,658.6 L 628.4,659.7 L 627.4,660.7 L 626.1,661.8 L 624.8,662.9 L 623.3,663.9 L 621.6,665.0 L 619.9,666.0 L 618.0,667.1 L 615.9,668.2 L 613.8,669.2 L 611.5,670.3 L 609.1,671.3 L 606.6,672.4 L 603.9,673.5 L 601.2,674.5 L 598.3,675.6 L 595.4,676.7 L 592.3,677.7 L 589.1,678.8 L 585.9,679.8 L 582.5,680.9 L 579.1,682.0 L 575.6,683.0 L 572.0,684.1 L 568.3,685.1 L 564.6,686.2 L 560.8,687.3 L 557.0,688.3 L 553.0,689.4 L 549.1,690.5 L 545.1,691.5 L 541.0,692.6 L 536.9,693.6 L 532.8,694.7 L 528.7,695.8 L 524.5,696.8 L 520.4,697.9 L 516.2,698.9 L 512.0,700.0" stroke="rgba(255,255,255,0.62)" stroke-width="52"/>
    <g>['<line x1="392.0" y1="365.8" x2="632.0" y2="365.8" stroke="#0A4F8F" stroke-width="30"/>', '<circle cx="392.0" cy="365.8" r="19" fill="#FFFFFF" stroke="#0A4F8F" stroke-width="8"/>', '<circle cx="632.0" cy="365.8" r="19" fill="#FFFFFF" stroke="#0A4F8F" stroke-width="8"/>', '<line x1="392.0" y1="461.2" x2="632.0" y2="461.2" stroke="#0A4F8F" stroke-width="30"/>', '<circle cx="392.0" cy="461.2" r="19" fill="#FFFFFF" stroke="#0A4F8F" stroke-width="8"/>', '<circle cx="632.0" cy="461.2" r="19" fill="#FFFFFF" stroke="#0A4F8F" stroke-width="8"/>', '<line x1="392.0" y1="556.8" x2="632.0" y2="556.8" stroke="#0A4F8F" stroke-width="30"/>', '<circle cx="392.0" cy="556.8" r="19" fill="#FFFFFF" stroke="#0A4F8F" stroke-width="8"/>', '<circle cx="632.0" cy="556.8" r="19" fill="#FFFFFF" stroke="#0A4F8F" stroke-width="8"/>', '<line x1="392.0" y1="652.2" x2="632.0" y2="652.2" stroke="#0A4F8F" stroke-width="30"/>', '<circle cx="392.0" cy="652.2" r="19" fill="#FFFFFF" stroke="#0A4F8F" stroke-width="8"/>', '<circle cx="632.0" cy="652.2" r="19" fill="#FFFFFF" stroke="#0A4F8F" stroke-width="8"/>']</g>
    <path d="M 512.0,318.0 L 516.2,319.1 L 520.4,320.1 L 524.5,321.2 L 528.7,322.2 L 532.8,323.3 L 536.9,324.4 L 541.0,325.4 L 545.1,326.5 L 549.1,327.6 L 553.0,328.6 L 557.0,329.7 L 560.8,330.7 L 564.6,331.8 L 568.3,332.9 L 572.0,333.9 L 575.6,335.0 L 579.1,336.0 L 582.5,337.1 L 585.9,338.2 L 589.1,339.2 L 592.3,340.3 L 595.4,341.3 L 598.3,342.4 L 601.2,343.5 L 603.9,344.5 L 606.6,345.6 L 609.1,346.6 L 611.5,347.7 L 613.8,348.8 L 615.9,349.8 L 618.0,350.9 L 619.9,352.0 L 621.6,353.0 L 623.3,354.1 L 624.8,355.1 L 626.1,356.2 L 627.4,357.3 L 628.4,358.3 L 629.4,359.4 L 630.2,360.4 L 630.8,361.5 L 631.3,362.6 L 631.7,363.6 L 631.9,364.7 L 632.0,365.8 L 631.9,366.8 L 631.7,367.9 L 631.3,368.9 L 630.8,370.0 L 630.2,371.1 L 629.4,372.1 L 628.4,373.2 L 627.4,374.2 L 626.1,375.3 L 624.8,376.4 L 623.3,377.4 L 621.6,378.5 L 619.9,379.5 L 618.0,380.6 L 615.9,381.7 L 613.8,382.7 L 611.5,383.8 L 609.1,384.9 L 606.6,385.9 L 603.9,387.0 L 601.2,388.0 L 598.3,389.1 L 595.4,390.2 L 592.3,391.2 L 589.1,392.3 L 585.9,393.3 L 582.5,394.4 L 579.1,395.5 L 575.6,396.5 L 572.0,397.6 L 568.3,398.6 L 564.6,399.7 L 560.8,400.8 L 557.0,401.8 L 553.0,402.9 L 549.1,403.9 L 545.1,405.0 L 541.0,406.1 L 536.9,407.1 L 532.8,408.2 L 528.7,409.3 L 524.5,410.3 L 520.4,411.4 L 516.2,412.4 L 512.0,413.5 L 507.8,414.6 L 503.6,415.6 L 499.5,416.7 L 495.3,417.7 L 491.2,418.8 L 487.1,419.9 L 483.0,420.9 L 478.9,422.0 L 474.9,423.1 L 471.0,424.1 L 467.0,425.2 L 463.2,426.2 L 459.4,427.3 L 455.7,428.4 L 452.0,429.4 L 448.4,430.5 L 444.9,431.5 L 441.5,432.6 L 438.1,433.7 L 434.9,434.7 L 431.7,435.8 L 428.6,436.8 L 425.7,437.9 L 422.8,439.0 L 420.1,440.0 L 417.4,441.1 L 414.9,442.1 L 412.5,443.2 L 410.2,444.3 L 408.1,445.3 L 406.0,446.4 L 404.1,447.5 L 402.4,448.5 L 400.7,449.6 L 399.2,450.6 L 397.9,451.7 L 396.6,452.8 L 395.6,453.8 L 394.6,454.9 L 393.8,455.9 L 393.2,457.0 L 392.7,458.1 L 392.3,459.1 L 392.1,460.2 L 392.0,461.2 L 392.1,462.3 L 392.3,463.4 L 392.7,464.4 L 393.2,465.5 L 393.8,466.6 L 394.6,467.6 L 395.6,468.7 L 396.6,469.7 L 397.9,470.8 L 399.2,471.9 L 400.7,472.9 L 402.4,474.0 L 404.1,475.0 L 406.0,476.1 L 408.1,477.2 L 410.2,478.2 L 412.5,479.3 L 414.9,480.4 L 417.4,481.4 L 420.1,482.5 L 422.8,483.5 L 425.7,484.6 L 428.6,485.7 L 431.7,486.7 L 434.9,487.8 L 438.1,488.8 L 441.5,489.9 L 444.9,491.0 L 448.4,492.0 L 452.0,493.1 L 455.7,494.1 L 459.4,495.2 L 463.2,496.3 L 467.0,497.3 L 471.0,498.4 L 474.9,499.4 L 478.9,500.5 L 483.0,501.6 L 487.1,502.6 L 491.2,503.7 L 495.3,504.8 L 499.5,505.8 L 503.6,506.9 L 507.8,507.9 L 512.0,509.0 L 516.2,510.1 L 520.4,511.1 L 524.5,512.2 L 528.7,513.2 L 532.8,514.3 L 536.9,515.4 L 541.0,516.4 L 545.1,517.5 L 549.1,518.5 L 553.0,519.6 L 557.0,520.7 L 560.8,521.7 L 564.6,522.8 L 568.3,523.9 L 572.0,524.9 L 575.6,526.0 L 579.1,527.0 L 582.5,528.1 L 585.9,529.2 L 589.1,530.2 L 592.3,531.3 L 595.4,532.3 L 598.3,533.4 L 601.2,534.5 L 603.9,535.5 L 606.6,536.6 L 609.1,537.6 L 611.5,538.7 L 613.8,539.8 L 615.9,540.8 L 618.0,541.9 L 619.9,543.0 L 621.6,544.0 L 623.3,545.1 L 624.8,546.1 L 626.1,547.2 L 627.4,548.3 L 628.4,549.3 L 629.4,550.4 L 630.2,551.4 L 630.8,552.5 L 631.3,553.6 L 631.7,554.6 L 631.9,555.7 L 632.0,556.8 L 631.9,557.8 L 631.7,558.9 L 631.3,559.9 L 630.8,561.0 L 630.2,562.1 L 629.4,563.1 L 628.4,564.2 L 627.4,565.2 L 626.1,566.3 L 624.8,567.4 L 623.3,568.4 L 621.6,569.5 L 619.9,570.5 L 618.0,571.6 L 615.9,572.7 L 613.8,573.7 L 611.5,574.8 L 609.1,575.8 L 606.6,576.9 L 603.9,578.0 L 601.2,579.0 L 598.3,580.1 L 595.4,581.2 L 592.3,582.2 L 589.1,583.3 L 585.9,584.3 L 582.5,585.4 L 579.1,586.5 L 575.6,587.5 L 572.0,588.6 L 568.3,589.6 L 564.6,590.7 L 560.8,591.8 L 557.0,592.8 L 553.0,593.9 L 549.1,595.0 L 545.1,596.0 L 541.0,597.1 L 536.9,598.1 L 532.8,599.2 L 528.7,600.3 L 524.5,601.3 L 520.4,602.4 L 516.2,603.4 L 512.0,604.5 L 507.8,605.6 L 503.6,606.6 L 499.5,607.7 L 495.3,608.7 L 491.2,609.8 L 487.1,610.9 L 483.0,611.9 L 478.9,613.0 L 474.9,614.0 L 471.0,615.1 L 467.0,616.2 L 463.2,617.2 L 459.4,618.3 L 455.7,619.4 L 452.0,620.4 L 448.4,621.5 L 444.9,622.5 L 441.5,623.6 L 438.1,624.7 L 434.9,625.7 L 431.7,626.8 L 428.6,627.8 L 425.7,628.9 L 422.8,630.0 L 420.1,631.0 L 417.4,632.1 L 414.9,633.1 L 412.5,634.2 L 410.2,635.3 L 408.1,636.3 L 406.0,637.4 L 404.1,638.5 L 402.4,639.5 L 400.7,640.6 L 399.2,641.6 L 397.9,642.7 L 396.6,643.8 L 395.6,644.8 L 394.6,645.9 L 393.8,646.9 L 393.2,648.0 L 392.7,649.1 L 392.3,650.1 L 392.1,651.2 L 392.0,652.2 L 392.1,653.3 L 392.3,654.4 L 392.7,655.4 L 393.2,656.5 L 393.8,657.6 L 394.6,658.6 L 395.6,659.7 L 396.6,660.7 L 397.9,661.8 L 399.2,662.9 L 400.7,663.9 L 402.4,665.0 L 404.1,666.0 L 406.0,667.1 L 408.1,668.2 L 410.2,669.2 L 412.5,670.3 L 414.9,671.3 L 417.4,672.4 L 420.1,673.5 L 422.8,674.5 L 425.7,675.6 L 428.6,676.7 L 431.7,677.7 L 434.9,678.8 L 438.1,679.8 L 441.5,680.9 L 444.9,682.0 L 448.4,683.0 L 452.0,684.1 L 455.7,685.1 L 459.4,686.2 L 463.2,687.3 L 467.0,688.3 L 471.0,689.4 L 474.9,690.5 L 478.9,691.5 L 483.0,692.6 L 487.1,693.6 L 491.2,694.7 L 495.3,695.8 L 499.5,696.8 L 503.6,697.9 L 507.8,698.9 L 512.0,700.0" stroke="#FFFFFF" stroke-width="46"/>
  </g>
</svg>
